<?xml version="1.0" encoding="UTF-8" standalone="no"?><svg xmlns="http://www.w3.org/2000/svg" id="logo" width="50.66" height="50.66" viewBox="-5 -5 48 48" preserveAspectRatio="xMidYMid meet" rendering="crispEdges"><rect id="13-1" x="28.5" y="0" width="2.375" height="2.375" shape-rendering="crispEdges" style="fill:#000000;opacity:255;"></rect><rect id="14-1" x="30.875" y="0" width="2.375" height="2.375" shape-rendering="crispEdges" style="fill:#000000;opacity:255;"></rect><rect id="15-1" x="33.25" y="0" width="2.375" height="2.375" shape-rendering="crispEdges" style="fill:#000000;opacity:255;"></rect><rect id="16-1" x="35.625" y="0" width="2.375" height="2.375" shape-rendering="crispEdges" style="fill:#000000;opacity:255;"></rect><rect id="11-2" x="23.75" y="2.375" width="2.375" height="2.375" shape-rendering="crispEdges" style="fill:#000000;opacity:255;"></rect><rect id="12-2" x="26.125" y="2.375" width="2.375" height="2.375" shape-rendering="crispEdges" style="fill:#000000;opacity:255;"></rect><rect id="13-2" x="28.5" y="2.375" width="2.375" height="2.375" shape-rendering="crispEdges" style="fill:#acff00;opacity:255;"></rect><rect id="14-2" x="30.875" y="2.375" width="2.375" height="2.375" shape-rendering="crispEdges" style="fill:#00ffac;opacity:255;"></rect><rect id="15-2" x="33.25" y="2.375" width="2.375" height="2.375" shape-rendering="crispEdges" style="fill:#ac00ff;opacity:255;"></rect><rect id="16-2" x="35.625" y="2.375" width="2.375" height="2.375" shape-rendering="crispEdges" style="fill:#000000;opacity:255;"></rect><rect id="10-3" x="21.375" y="4.75" width="2.375" height="2.375" shape-rendering="crispEdges" style="fill:#000000;opacity:255;"></rect><rect id="11-3" x="23.75" y="4.75" width="2.375" height="2.375" shape-rendering="crispEdges" style="fill:#ff0000;opacity:255;"></rect><rect id="12-3" x="26.125" y="4.75" width="2.375" height="2.375" shape-rendering="crispEdges" style="fill:#ffac00;opacity:255;"></rect><rect id="13-3" x="28.5" y="4.75" width="2.375" height="2.375" shape-rendering="crispEdges" style="fill:#00ff00;opacity:255;"></rect><rect id="14-3" x="30.875" y="4.75" width="2.375" height="2.375" shape-rendering="crispEdges" style="fill:#0000ff;opacity:255;"></rect><rect id="15-3" x="33.25" y="4.75" width="2.375" height="2.375" shape-rendering="crispEdges" style="fill:#000000;opacity:255;"></rect><rect id="9-4" x="19" y="7.125" width="2.375" height="2.375" shape-rendering="crispEdges" style="fill:#000000;opacity:255;"></rect><rect id="10-4" x="21.375" y="7.125" width="2.375" height="2.375" shape-rendering="crispEdges" style="fill:#5c370e;opacity:255;"></rect><rect id="11-4" x="23.75" y="7.125" width="2.375" height="2.375" shape-rendering="crispEdges" style="fill:#4e2f0c;opacity:255;"></rect><rect id="12-4" x="26.125" y="7.125" width="2.375" height="2.375" shape-rendering="crispEdges" style="fill:#492c0c;opacity:255;"></rect><rect id="13-4" x="28.5" y="7.125" width="2.375" height="2.375" shape-rendering="crispEdges" style="fill:#00acff;opacity:255;"></rect><rect id="14-4" x="30.875" y="7.125" width="2.375" height="2.375" shape-rendering="crispEdges" style="fill:#ff00ac;opacity:255;"></rect><rect id="15-4" x="33.25" y="7.125" width="2.375" height="2.375" shape-rendering="crispEdges" style="fill:#000000;opacity:255;"></rect><rect id="8-5" x="16.625" y="9.5" width="2.375" height="2.375" shape-rendering="crispEdges" style="fill:#000000;opacity:255;"></rect><rect id="9-5" x="19" y="9.5" width="2.375" height="2.375" shape-rendering="crispEdges" style="fill:#5c370e;opacity:255;"></rect><rect id="10-5" x="21.375" y="9.5" width="2.375" height="2.375" shape-rendering="crispEdges" style="fill:#4e2f0c;opacity:255;"></rect><rect id="11-5" x="23.75" y="9.5" width="2.375" height="2.375" shape-rendering="crispEdges" style="fill:#492c0c;opacity:255;"></rect><rect id="12-5" x="26.125" y="9.5" width="2.375" height="2.375" shape-rendering="crispEdges" style="fill:#4e2f0c;opacity:255;"></rect><rect id="13-5" x="28.5" y="9.5" width="2.375" height="2.375" shape-rendering="crispEdges" style="fill:#5c370e;opacity:255;"></rect><rect id="14-5" x="30.875" y="9.5" width="2.375" height="2.375" shape-rendering="crispEdges" style="fill:#000000;opacity:255;"></rect><rect id="8-6" x="16.625" y="11.875" width="2.375" height="2.375" shape-rendering="crispEdges" style="fill:#000000;opacity:255;"></rect><rect id="9-6" x="19" y="11.875" width="2.375" height="2.375" shape-rendering="crispEdges" style="fill:#4e2f0c;opacity:255;"></rect><rect id="10-6" x="21.375" y="11.875" width="2.375" height="2.375" shape-rendering="crispEdges" style="fill:#492c0c;opacity:255;"></rect><rect id="11-6" x="23.75" y="11.875" width="2.375" height="2.375" shape-rendering="crispEdges" style="fill:#4e2f0c;opacity:255;"></rect><rect id="12-6" x="26.125" y="11.875" width="2.375" height="2.375" shape-rendering="crispEdges" style="fill:#5c370e;opacity:255;"></rect><rect id="13-6" x="28.5" y="11.875" width="2.375" height="2.375" shape-rendering="crispEdges" style="fill:#4e2f0c;opacity:255;"></rect><rect id="14-6" x="30.875" y="11.875" width="2.375" height="2.375" shape-rendering="crispEdges" style="fill:#000000;opacity:255;"></rect><rect id="8-7" x="16.625" y="14.25" width="2.375" height="2.375" shape-rendering="crispEdges" style="fill:#000000;opacity:255;"></rect><rect id="9-7" x="19" y="14.25" width="2.375" height="2.375" shape-rendering="crispEdges" style="fill:#492c0c;opacity:255;"></rect><rect id="10-7" x="21.375" y="14.25" width="2.375" height="2.375" shape-rendering="crispEdges" style="fill:#4e2f0c;opacity:255;"></rect><rect id="11-7" x="23.75" y="14.25" width="2.375" height="2.375" shape-rendering="crispEdges" style="fill:#5c370e;opacity:255;"></rect><rect id="12-7" x="26.125" y="14.25" width="2.375" height="2.375" shape-rendering="crispEdges" style="fill:#4e2f0c;opacity:255;"></rect><rect id="13-7" x="28.5" y="14.25" width="2.375" height="2.375" shape-rendering="crispEdges" style="fill:#492c0c;opacity:255;"></rect><rect id="14-7" x="30.875" y="14.25" width="2.375" height="2.375" shape-rendering="crispEdges" style="fill:#000000;opacity:255;"></rect><rect id="7-8" x="14.25" y="16.625" width="2.375" height="2.375" shape-rendering="crispEdges" style="fill:#000000;opacity:255;"></rect><rect id="8-8" x="16.625" y="16.625" width="2.375" height="2.375" shape-rendering="crispEdges" style="fill:#884e13;opacity:255;"></rect><rect id="9-8" x="19" y="16.625" width="2.375" height="2.375" shape-rendering="crispEdges" style="fill:#000000;opacity:255;"></rect><rect id="10-8" x="21.375" y="16.625" width="2.375" height="2.375" shape-rendering="crispEdges" style="fill:#5c370e;opacity:255;"></rect><rect id="11-8" x="23.75" y="16.625" width="2.375" height="2.375" shape-rendering="crispEdges" style="fill:#4e2f0c;opacity:255;"></rect><rect id="12-8" x="26.125" y="16.625" width="2.375" height="2.375" shape-rendering="crispEdges" style="fill:#492c0c;opacity:255;"></rect><rect id="13-8" x="28.5" y="16.625" width="2.375" height="2.375" shape-rendering="crispEdges" style="fill:#000000;opacity:255;"></rect><rect id="6-9" x="11.875" y="19" width="2.375" height="2.375" shape-rendering="crispEdges" style="fill:#000000;opacity:255;"></rect><rect id="7-9" x="14.25" y="19" width="2.375" height="2.375" shape-rendering="crispEdges" style="fill:#884e13;opacity:255;"></rect><rect id="8-9" x="16.625" y="19" width="2.375" height="2.375" shape-rendering="crispEdges" style="fill:#884e13;opacity:255;"></rect><rect id="9-9" x="19" y="19" width="2.375" height="2.375" shape-rendering="crispEdges" style="fill:#884e13;opacity:255;"></rect><rect id="10-9" x="21.375" y="19" width="2.375" height="2.375" shape-rendering="crispEdges" style="fill:#000000;opacity:255;"></rect><rect id="11-9" x="23.75" y="19" width="2.375" height="2.375" shape-rendering="crispEdges" style="fill:#000000;opacity:255;"></rect><rect id="12-9" x="26.125" y="19" width="2.375" height="2.375" shape-rendering="crispEdges" style="fill:#000000;opacity:255;"></rect><rect id="5-10" x="9.5" y="21.375" width="2.375" height="2.375" shape-rendering="crispEdges" style="fill:#000000;opacity:255;"></rect><rect id="6-10" x="11.875" y="21.375" width="2.375" height="2.375" shape-rendering="crispEdges" style="fill:#884e13;opacity:255;"></rect><rect id="7-10" x="14.25" y="21.375" width="2.375" height="2.375" shape-rendering="crispEdges" style="fill:#884e13;opacity:255;"></rect><rect id="8-10" x="16.625" y="21.375" width="2.375" height="2.375" shape-rendering="crispEdges" style="fill:#884e13;opacity:255;"></rect><rect id="9-10" x="19" y="21.375" width="2.375" height="2.375" shape-rendering="crispEdges" style="fill:#000000;opacity:255;"></rect><rect id="4-11" x="7.125" y="23.75" width="2.375" height="2.375" shape-rendering="crispEdges" style="fill:#000000;opacity:255;"></rect><rect id="5-11" x="9.5" y="23.75" width="2.375" height="2.375" shape-rendering="crispEdges" style="fill:#884e13;opacity:255;"></rect><rect id="6-11" x="11.875" y="23.75" width="2.375" height="2.375" shape-rendering="crispEdges" style="fill:#884e13;opacity:255;"></rect><rect id="7-11" x="14.25" y="23.75" width="2.375" height="2.375" shape-rendering="crispEdges" style="fill:#884e13;opacity:255;"></rect><rect id="8-11" x="16.625" y="23.75" width="2.375" height="2.375" shape-rendering="crispEdges" style="fill:#000000;opacity:255;"></rect><rect id="3-12" x="4.75" y="26.125" width="2.375" height="2.375" shape-rendering="crispEdges" style="fill:#000000;opacity:255;"></rect><rect id="4-12" x="7.125" y="26.125" width="2.375" height="2.375" shape-rendering="crispEdges" style="fill:#884e13;opacity:255;"></rect><rect id="5-12" x="9.5" y="26.125" width="2.375" height="2.375" shape-rendering="crispEdges" style="fill:#884e13;opacity:255;"></rect><rect id="6-12" x="11.875" y="26.125" width="2.375" height="2.375" shape-rendering="crispEdges" style="fill:#884e13;opacity:255;"></rect><rect id="7-12" x="14.25" y="26.125" width="2.375" height="2.375" shape-rendering="crispEdges" style="fill:#000000;opacity:255;"></rect><rect id="2-13" x="2.375" y="28.5" width="2.375" height="2.375" shape-rendering="crispEdges" style="fill:#000000;opacity:255;"></rect><rect id="3-13" x="4.75" y="28.5" width="2.375" height="2.375" shape-rendering="crispEdges" style="fill:#884e13;opacity:255;"></rect><rect id="4-13" x="7.125" y="28.5" width="2.375" height="2.375" shape-rendering="crispEdges" style="fill:#884e13;opacity:255;"></rect><rect id="5-13" x="9.5" y="28.5" width="2.375" height="2.375" shape-rendering="crispEdges" style="fill:#884e13;opacity:255;"></rect><rect id="6-13" x="11.875" y="28.5" width="2.375" height="2.375" shape-rendering="crispEdges" style="fill:#000000;opacity:255;"></rect><rect id="1-14" x="0" y="30.875" width="2.375" height="2.375" shape-rendering="crispEdges" style="fill:#000000;opacity:255;"></rect><rect id="2-14" x="2.375" y="30.875" width="2.375" height="2.375" shape-rendering="crispEdges" style="fill:#884e13;opacity:255;"></rect><rect id="3-14" x="4.75" y="30.875" width="2.375" height="2.375" shape-rendering="crispEdges" style="fill:#884e13;opacity:255;"></rect><rect id="4-14" x="7.125" y="30.875" width="2.375" height="2.375" shape-rendering="crispEdges" style="fill:#884e13;opacity:255;"></rect><rect id="5-14" x="9.5" y="30.875" width="2.375" height="2.375" shape-rendering="crispEdges" style="fill:#000000;opacity:255;"></rect><rect id="1-15" x="0" y="33.25" width="2.375" height="2.375" shape-rendering="crispEdges" style="fill:#000000;opacity:255;"></rect><rect id="2-15" x="2.375" y="33.25" width="2.375" height="2.375" shape-rendering="crispEdges" style="fill:#884e13;opacity:255;"></rect><rect id="3-15" x="4.75" y="33.25" width="2.375" height="2.375" shape-rendering="crispEdges" style="fill:#884e13;opacity:255;"></rect><rect id="4-15" x="7.125" y="33.25" width="2.375" height="2.375" shape-rendering="crispEdges" style="fill:#000000;opacity:255;"></rect><rect id="1-16" x="0" y="35.625" width="2.375" height="2.375" shape-rendering="crispEdges" style="fill:#000000;opacity:255;"></rect><rect id="2-16" x="2.375" y="35.625" width="2.375" height="2.375" shape-rendering="crispEdges" style="fill:#000000;opacity:255;"></rect><rect id="3-16" x="4.75" y="35.625" width="2.375" height="2.375" shape-rendering="crispEdges" style="fill:#000000;opacity:255;"></rect></svg>